<mxfile host="app.diagrams.net" modified="2023-09-19T07:11:04.890Z" agent="Mozilla/5.0 (Windows NT 10.0; Win64; x64) AppleWebKit/537.36 (KHTML, like Gecko) Chrome/116.0.0.0 Whale/3.22.205.18 Safari/537.36" etag="b_kVaFHNjBWc-REpkogE" version="21.7.5" type="device">
  <diagram name="페이지-1" id="5FP3706S1l-MpXKFlqA6">
    <mxGraphModel dx="2524" dy="-332" grid="1" gridSize="10" guides="1" tooltips="1" connect="1" arrows="1" fold="1" page="1" pageScale="1" pageWidth="827" pageHeight="1169" math="0" shadow="0">
      <root>
        <mxCell id="0" />
        <mxCell id="1" parent="0" />
        <mxCell id="lit4YdR98FuAfoKVWrhH-3" value="게임매니저" style="rounded=0;whiteSpace=wrap;html=1;" parent="1" vertex="1">
          <mxGeometry x="910" y="1200" width="240" height="80" as="geometry" />
        </mxCell>
        <mxCell id="5qvA8EYgcYFjzDKoCKWM-1" value="&lt;br&gt;&lt;ul style=&quot;border-color: var(--border-color); text-align: left;&quot;&gt;&lt;li style=&quot;border-color: var(--border-color);&quot;&gt;&lt;br style=&quot;border-color: var(--border-color);&quot;&gt;&lt;p style=&quot;border-color: var(--border-color);&quot;&gt;필수요구사항&lt;/p&gt;&lt;br style=&quot;border-color: var(--border-color);&quot;&gt;&lt;ul style=&quot;border-color: var(--border-color);&quot;&gt;&lt;li style=&quot;border-color: var(--border-color);&quot;&gt;&lt;p style=&quot;border-color: var(--border-color);&quot;&gt;&lt;br style=&quot;border-color: var(--border-color);&quot;&gt;&lt;/p&gt;&lt;br style=&quot;border-color: var(--border-color);&quot;&gt;&lt;/li&gt;&lt;br style=&quot;border-color: var(--border-color);&quot;&gt;&lt;li style=&quot;border-color: var(--border-color);&quot;&gt;&lt;br style=&quot;border-color: var(--border-color);&quot;&gt;&lt;ol style=&quot;border-color: var(--border-color);&quot; start=&quot;2&quot;&gt;&lt;br style=&quot;border-color: var(--border-color);&quot;&gt;&lt;li style=&quot;border-color: var(--border-color);&quot;&gt;&lt;br&gt;&lt;/li&gt;&lt;/ol&gt;&lt;ul style=&quot;border-color: var(--border-color);&quot;&gt;&lt;br style=&quot;border-color: var(--border-color);&quot;&gt;&lt;/ul&gt;&lt;p style=&quot;border-color: var(--border-color);&quot;&gt;&lt;br style=&quot;border-color: var(--border-color);&quot;&gt;&lt;/p&gt;&lt;/li&gt;&lt;br style=&quot;border-color: var(--border-color);&quot;&gt;&lt;li style=&quot;border-color: var(--border-color);&quot;&gt;&lt;br style=&quot;border-color: var(--border-color);&quot;&gt;&lt;ol style=&quot;border-color: var(--border-color);&quot; start=&quot;3&quot;&gt;&lt;br style=&quot;border-color: var(--border-color);&quot;&gt;&lt;li style=&quot;border-color: var(--border-color);&quot;&gt;Inventory 보기&lt;/li&gt;&lt;br style=&quot;border-color: var(--border-color);&quot;&gt;&lt;/ol&gt;&lt;br style=&quot;border-color: var(--border-color);&quot;&gt;&lt;ul style=&quot;border-color: var(--border-color);&quot;&gt;&lt;br style=&quot;border-color: var(--border-color);&quot;&gt;&lt;li style=&quot;border-color: var(--border-color);&quot;&gt;&lt;br style=&quot;border-color: var(--border-color);&quot;&gt;&lt;p style=&quot;border-color: var(--border-color);&quot;&gt;Status 버튼, Inventory 버튼 - 사라지기&lt;/p&gt;&lt;br style=&quot;border-color: var(--border-color);&quot;&gt;&lt;/li&gt;&lt;br style=&quot;border-color: var(--border-color);&quot;&gt;&lt;li style=&quot;border-color: var(--border-color);&quot;&gt;&lt;br style=&quot;border-color: var(--border-color);&quot;&gt;&lt;p style=&quot;border-color: var(--border-color);&quot;&gt;우측에 인벤토리 표시&lt;/p&gt;&lt;br style=&quot;border-color: var(--border-color);&quot;&gt;&lt;/li&gt;&lt;br style=&quot;border-color: var(--border-color);&quot;&gt;&lt;li style=&quot;border-color: var(--border-color);&quot;&gt;&lt;br style=&quot;border-color: var(--border-color);&quot;&gt;&lt;p style=&quot;border-color: var(--border-color);&quot;&gt;아이템을 클릭하면 장착관리&lt;/p&gt;&lt;br style=&quot;border-color: var(--border-color);&quot;&gt;&lt;ul style=&quot;border-color: var(--border-color);&quot;&gt;&lt;br style=&quot;border-color: var(--border-color);&quot;&gt;&lt;li style=&quot;border-color: var(--border-color);&quot;&gt;&lt;br style=&quot;border-color: var(--border-color);&quot;&gt;&lt;p style=&quot;border-color: var(--border-color);&quot;&gt;아이템 장착 중 - X : 장착 확인 팝업&lt;/p&gt;&lt;br style=&quot;border-color: var(--border-color);&quot;&gt;&lt;p style=&quot;border-color: var(--border-color);&quot;&gt;&lt;br style=&quot;border-color: var(--border-color);&quot;&gt;&lt;/p&gt;&lt;/li&gt;&lt;br style=&quot;border-color: var(--border-color);&quot;&gt;&lt;li style=&quot;border-color: var(--border-color);&quot;&gt;&lt;br style=&quot;border-color: var(--border-color);&quot;&gt;&lt;p style=&quot;border-color: var(--border-color);&quot;&gt;아이템 장착 중 - O : 장착해제 확인 팝업&lt;/p&gt;&lt;br style=&quot;border-color: var(--border-color);&quot;&gt;&lt;p style=&quot;border-color: var(--border-color);&quot;&gt;&lt;br style=&quot;border-color: var(--border-color);&quot;&gt;&lt;/p&gt;&lt;/li&gt;&lt;/ul&gt;&lt;br style=&quot;border-color: var(--border-color);&quot;&gt;&lt;/li&gt;&lt;br style=&quot;border-color: var(--border-color);&quot;&gt;&lt;li style=&quot;border-color: var(--border-color);&quot;&gt;&lt;br style=&quot;border-color: var(--border-color);&quot;&gt;&lt;p style=&quot;border-color: var(--border-color);&quot;&gt;장착중인 아이템은 표시&lt;/p&gt;&lt;br style=&quot;border-color: var(--border-color);&quot;&gt;&lt;p style=&quot;border-color: var(--border-color);&quot;&gt;&lt;br style=&quot;border-color: var(--border-color);&quot;&gt;&lt;/p&gt;&lt;/li&gt;&lt;br style=&quot;border-color: var(--border-color);&quot;&gt;&lt;li style=&quot;border-color: var(--border-color);&quot;&gt;&lt;br style=&quot;border-color: var(--border-color);&quot;&gt;&lt;p style=&quot;border-color: var(--border-color);&quot;&gt;뒤로가기 버튼을 누르면 1번 화면으로 이동&lt;/p&gt;&lt;/li&gt;&lt;/ul&gt;&lt;p style=&quot;border-color: var(--border-color);&quot;&gt;&lt;br style=&quot;border-color: var(--border-color);&quot;&gt;&lt;/p&gt;&lt;/li&gt;&lt;/ul&gt;&lt;/li&gt;&lt;li style=&quot;border-color: var(--border-color);&quot;&gt;&lt;br style=&quot;border-color: var(--border-color);&quot;&gt;&lt;/li&gt;&lt;/ul&gt;" style="rounded=0;whiteSpace=wrap;html=1;" parent="1" vertex="1">
          <mxGeometry x="1460" y="1754" width="890" height="260" as="geometry" />
        </mxCell>
        <mxCell id="bjRdq1JfHH7JWIjCGSQV-9" value="" style="rounded=0;whiteSpace=wrap;html=1;" vertex="1" parent="1">
          <mxGeometry x="-800" y="1200" width="640" height="360" as="geometry" />
        </mxCell>
        <mxCell id="bjRdq1JfHH7JWIjCGSQV-10" value="메인 캐릭터 이미지" style="rounded=0;whiteSpace=wrap;html=1;" vertex="1" parent="1">
          <mxGeometry x="-560" y="1290" width="170" height="170" as="geometry" />
        </mxCell>
        <mxCell id="bjRdq1JfHH7JWIjCGSQV-24" style="edgeStyle=orthogonalEdgeStyle;rounded=0;orthogonalLoop=1;jettySize=auto;html=1;entryX=0.5;entryY=0;entryDx=0;entryDy=0;" edge="1" parent="1" source="bjRdq1JfHH7JWIjCGSQV-11" target="bjRdq1JfHH7JWIjCGSQV-21">
          <mxGeometry relative="1" as="geometry">
            <mxPoint x="-480" y="1600" as="targetPoint" />
          </mxGeometry>
        </mxCell>
        <mxCell id="bjRdq1JfHH7JWIjCGSQV-27" style="edgeStyle=orthogonalEdgeStyle;rounded=0;orthogonalLoop=1;jettySize=auto;html=1;" edge="1" parent="1" source="bjRdq1JfHH7JWIjCGSQV-11" target="bjRdq1JfHH7JWIjCGSQV-26">
          <mxGeometry relative="1" as="geometry">
            <Array as="points">
              <mxPoint x="-265" y="1600" />
              <mxPoint x="-75" y="1600" />
            </Array>
          </mxGeometry>
        </mxCell>
        <mxCell id="bjRdq1JfHH7JWIjCGSQV-11" value="우츠 메뉴바" style="rounded=0;whiteSpace=wrap;html=1;" vertex="1" parent="1">
          <mxGeometry x="-340" y="1290" width="150" height="170" as="geometry" />
        </mxCell>
        <mxCell id="bjRdq1JfHH7JWIjCGSQV-12" value="우상단,&amp;nbsp; 골드, 젬" style="rounded=0;whiteSpace=wrap;html=1;" vertex="1" parent="1">
          <mxGeometry x="-450" y="1220" width="260" height="50" as="geometry" />
        </mxCell>
        <mxCell id="bjRdq1JfHH7JWIjCGSQV-13" value="좌측&lt;br&gt;&lt;br&gt;아이디, 및 캐릭터 정보&lt;br&gt;경험치 등" style="rounded=0;whiteSpace=wrap;html=1;" vertex="1" parent="1">
          <mxGeometry x="-770" y="1290" width="170" height="170" as="geometry" />
        </mxCell>
        <mxCell id="bjRdq1JfHH7JWIjCGSQV-21" value="캐릭터 정보" style="rounded=0;whiteSpace=wrap;html=1;" vertex="1" parent="1">
          <mxGeometry x="-340" y="1690" width="150" height="170" as="geometry" />
        </mxCell>
        <mxCell id="bjRdq1JfHH7JWIjCGSQV-26" value="인벤토리" style="rounded=0;whiteSpace=wrap;html=1;" vertex="1" parent="1">
          <mxGeometry x="-150" y="1690" width="150" height="170" as="geometry" />
        </mxCell>
        <mxCell id="bjRdq1JfHH7JWIjCGSQV-28" value="UI 매니저" style="rounded=0;whiteSpace=wrap;html=1;" vertex="1" parent="1">
          <mxGeometry x="1230" y="1200" width="240" height="80" as="geometry" />
        </mxCell>
        <mxCell id="bjRdq1JfHH7JWIjCGSQV-30" value="데이터 매니저" style="rounded=0;whiteSpace=wrap;html=1;" vertex="1" parent="1">
          <mxGeometry x="1230" y="1320" width="240" height="80" as="geometry" />
        </mxCell>
        <mxCell id="bjRdq1JfHH7JWIjCGSQV-31" value="아이템 매니저" style="rounded=0;whiteSpace=wrap;html=1;" vertex="1" parent="1">
          <mxGeometry x="1230" y="1440" width="240" height="80" as="geometry" />
        </mxCell>
        <mxCell id="bjRdq1JfHH7JWIjCGSQV-32" value="필수 구현 사항&lt;br&gt;1. 아이디, 레벨, 골드, status 버튼, Inventory 버튼" style="whiteSpace=wrap;html=1;shape=mxgraph.basic.roundRectCallout;dx=30;dy=15;size=5;boundedLbl=1;" vertex="1" parent="1">
          <mxGeometry x="40" y="1240" width="610" height="70" as="geometry" />
        </mxCell>
        <mxCell id="bjRdq1JfHH7JWIjCGSQV-33" value="&lt;div style=&quot;text-align: left;&quot;&gt;&lt;span style=&quot;background-color: initial;&quot;&gt;2. 스테이터스 보기창 :&amp;nbsp;&lt;/span&gt;&lt;span style=&quot;background-color: initial;&quot;&gt;status 버튼, 인벤토리 버튼 사라지고, 우측에 캐릭정보 표현하기, 뒤로가기 버튼 생기기&lt;/span&gt;&lt;br&gt;&lt;/div&gt;" style="whiteSpace=wrap;html=1;shape=mxgraph.basic.roundRectCallout;dx=30;dy=15;size=5;boundedLbl=1;" vertex="1" parent="1">
          <mxGeometry x="40" y="1320" width="610" height="70" as="geometry" />
        </mxCell>
        <mxCell id="bjRdq1JfHH7JWIjCGSQV-34" value="&lt;div style=&quot;text-align: left;&quot;&gt;&lt;span style=&quot;background-color: initial;&quot;&gt;3. 인벤토리 보기창 :&amp;nbsp;&lt;/span&gt;&lt;span style=&quot;background-color: initial;&quot;&gt;status 버튼, 인벤토리 버튼 사라지고, 우측에 인벤토리 표현하기, 뒤로가기 버튼 생기기&lt;/span&gt;&lt;br&gt;&lt;/div&gt;" style="whiteSpace=wrap;html=1;shape=mxgraph.basic.roundRectCallout;dx=30;dy=15;size=5;boundedLbl=1;" vertex="1" parent="1">
          <mxGeometry x="40" y="1400" width="610" height="70" as="geometry" />
        </mxCell>
        <mxCell id="bjRdq1JfHH7JWIjCGSQV-35" value="&lt;div style=&quot;text-align: left;&quot;&gt;&lt;span style=&quot;background-color: initial;&quot;&gt;4. 장착관리 메뉴 :&amp;nbsp;&lt;/span&gt;&lt;span style=&quot;background-color: initial;&quot;&gt;장착여부에 따라서, 아이템 클릭시 착용/해제 여부 묻기, 착용시 E 표시 띄우기&lt;/span&gt;&lt;br&gt;&lt;/div&gt;" style="whiteSpace=wrap;html=1;shape=mxgraph.basic.roundRectCallout;dx=30;dy=15;size=5;boundedLbl=1;" vertex="1" parent="1">
          <mxGeometry x="40" y="1480" width="610" height="70" as="geometry" />
        </mxCell>
      </root>
    </mxGraphModel>
  </diagram>
</mxfile>
